<?xml version="1.0" standalone="no"?><!DOCTYPE svg PUBLIC "-//W3C//DTD SVG 1.1//EN" "http://www.w3.org/Graphics/SVG/1.1/DTD/svg11.dtd"><svg t="1721633764083" class="icon" viewBox="0 0 1225 1024" version="1.1" xmlns="http://www.w3.org/2000/svg" p-id="21228" width="57.421875" height="48" xmlns:xlink="http://www.w3.org/1999/xlink"><path d="M932.571429 1024H274.285714A182.857143 182.857143 0 0 1 91.428571 841.142857V182.857143A182.857143 182.857143 0 0 1 274.285714 0h658.285715a182.857143 182.857143 0 0 1 182.857142 182.857143v658.285714a182.857143 182.857143 0 0 1-182.857142 182.857143z m73.142857-201.142857V605.641143A216.905143 216.905143 0 0 0 914.285714 585.142857a218.569143 218.569143 0 0 0-189.385143 329.142857H914.285714a91.428571 91.428571 0 0 0 91.428572-91.428571zM914.285714 109.714286H292.571429a91.428571 91.428571 0 0 0-91.428572 91.428571v621.714286a91.428571 91.428571 0 0 0 91.428572 91.428571h311.936A327.661714 327.661714 0 0 1 1005.714286 488.886857V201.142857a91.428571 91.428571 0 0 0-91.428572-91.428571zM438.857143 530.285714a164.571429 164.571429 0 1 1 164.571428-164.571428 164.571429 164.571429 0 0 1-164.571428 164.571428z m0-219.428571a54.857143 54.857143 0 1 0 54.857143 54.857143 54.857143 54.857143 0 0 0-54.857143-54.857143z" fill="#000000" p-id="21229"></path></svg>