<?xml version="1.0" standalone="no"?><!DOCTYPE svg PUBLIC "-//W3C//DTD SVG 1.1//EN" "http://www.w3.org/Graphics/SVG/1.1/DTD/svg11.dtd"><svg t="1721634123201" class="icon" viewBox="0 0 1024 1024" version="1.1" xmlns="http://www.w3.org/2000/svg" p-id="27171" width="48" height="48" xmlns:xlink="http://www.w3.org/1999/xlink"><path d="M512 0c282.752 0 512 229.248 512 512s-229.248 512-512 512S0 794.752 0 512 229.248 0 512 0z m0 77.568C272.042667 77.568 77.568 272.042667 77.568 512c0 239.957333 194.474667 434.432 434.432 434.432 239.957333 0 434.432-194.474667 434.432-434.432 0-239.957333-194.474667-434.432-434.432-434.432z" fill="#000000" p-id="27172"></path><path d="M725.802667 465.066667H485.973333a20.906667 20.906667 0 0 0-20.906666 20.906666v52.096c0 11.52 9.386667 20.906667 20.906666 20.906667h146.005334c11.52 0 20.864 9.301333 20.864 20.821333v10.410667c0 34.56-28.032 62.592-62.592 62.592H392.106667a20.864 20.864 0 0 1-20.906667-20.864v-198.144A62.592 62.592 0 0 1 433.792 371.2h292.010667a20.906667 20.906667 0 0 0 20.864-20.864V298.24a20.821333 20.821333 0 0 0-20.821334-20.864h-292.010666A156.458667 156.458667 0 0 0 277.333333 433.792v292.010667c0 11.52 9.344 20.864 20.864 20.864H605.866667a140.8 140.8 0 0 0 140.8-140.8v-119.893334a20.864 20.864 0 0 0-20.864-20.906666z" fill="#000000" p-id="27173"></path></svg>