<?xml version="1.0" standalone="no"?><!DOCTYPE svg PUBLIC "-//W3C//DTD SVG 1.1//EN" "http://www.w3.org/Graphics/SVG/1.1/DTD/svg11.dtd"><svg t="1721633660789" class="icon" viewBox="0 0 1024 1024" version="1.1" xmlns="http://www.w3.org/2000/svg" p-id="20005" width="48" height="48" xmlns:xlink="http://www.w3.org/1999/xlink"><path d="M444.16 120.107l-256 160A128 128 0 0 0 128 388.608V768a128 128 0 0 0 128 128h512a128 128 0 0 0 128-128V388.608a128 128 0 0 0-60.16-108.501l-256-160a128 128 0 0 0-135.68 0z m90.453 72.32l256 160a42.667 42.667 0 0 1 20.054 36.181V768A42.667 42.667 0 0 1 768 810.667H256A42.667 42.667 0 0 1 213.333 768V388.608a42.667 42.667 0 0 1 20.054-36.181l256-160a42.667 42.667 0 0 1 45.226 0z" p-id="20006" fill="#000000"></path><path d="M384 597.333h256q42.667 0 42.667 42.667T640 682.667H384q-42.667 0-42.667-42.667T384 597.333z" p-id="20007" fill="#000000"></path></svg>