<?xml version="1.0" standalone="no"?><!DOCTYPE svg PUBLIC "-//W3C//DTD SVG 1.1//EN" "http://www.w3.org/Graphics/SVG/1.1/DTD/svg11.dtd"><svg t="1721633807632" class="icon" viewBox="0 0 1024 1024" version="1.1" xmlns="http://www.w3.org/2000/svg" p-id="22791" width="48" height="48" xmlns:xlink="http://www.w3.org/1999/xlink"><path d="M598.1 392.7m-56.8 0a56.8 56.8 0 1 0 113.6 0 56.8 56.8 0 1 0-113.6 0Z" fill="#000000" p-id="22792"></path><path d="M434.6 392.7m-33.8 0a33.8 33.8 0 1 0 67.6 0 33.8 33.8 0 1 0-67.6 0Z" fill="#000000" p-id="22793"></path><path d="M236.6 828.1c-68.7 0-123.9-20.2-152.4-67.5-37.3-62-14.6-148.9 63.9-244.8 4.6-5.4 19.2-21.7 37-30 22.4-10.5 49-0.8 59.5 21.6 10.4 22.4 0.8 49-21.6 59.5-0.7 0.6-4.7 4.6-6 6.2-59.9 73.2-67.7 122-56 141.3 28.6 47.6 208 33.8 423.7-96.2 99.8-60.2 184-131.7 237-201.2 41.8-54.9 59.9-105.4 45.9-128.6-12.7-21.1-57.8-29.5-117.6-22-12.1 1.5-25 3.7-38.1 6.5-24.3 5.1-47.9-10.4-53-34.6-5.1-24.2 10.4-47.9 34.6-53 15.6-3.3 30.8-5.8 45.4-7.7 127.9-16.1 182.3 26.3 205.4 64.7 35.1 58.2 16.8 139.6-51.4 229-59.7 78.3-152.8 157.6-262.1 223.5-129.9 78.3-280.7 133.3-394.2 133.3z" fill="#000000" p-id="22794"></path><path d="M529.8 874.7c-200.4 0-363.5-163.1-363.5-363.5s163.1-363.5 363.5-363.5 363.5 163.1 363.5 363.5-163 363.5-363.5 363.5z m0-637.5c-151.1 0-274 122.9-274 274s122.9 274 274 274 274-122.9 274-274-122.9-274-274-274z" fill="#000000" p-id="22795"></path></svg>